<svg width="16" height="12" viewBox="0 0 16 12" fill="none" xmlns="http://www.w3.org/2000/svg">
<path d="M2.29492 2H4.28375" stroke="#1A5333" stroke-linecap="round"/>
<path d="M8.26172 2H15.2226" stroke="#1A5333" stroke-linecap="round"/>
<path d="M7.76086 2C7.76086 2.83107 7.09165 3.5 6.27203 3.5C5.45241 3.5 4.7832 2.83107 4.7832 2C4.7832 1.16893 5.45241 0.5 6.27203 0.5C7.09165 0.5 7.76086 1.16893 7.76086 2Z" stroke="#1A5333"/>
<path d="M1.30273 10H3.29156" stroke="#1A5333" stroke-linecap="round"/>
<path d="M7.26953 10H14.2304" stroke="#1A5333" stroke-linecap="round"/>
<path d="M6.76867 10C6.76867 10.8311 6.09946 11.5 5.27984 11.5C4.46022 11.5 3.79102 10.8311 3.79102 10C3.79102 9.16893 4.46022 8.5 5.27984 8.5C6.09946 8.5 6.76867 9.16893 6.76867 10Z" stroke="#1A5333"/>
<path d="M15.2246 6H13.2358" stroke="#1A5333" stroke-linecap="round"/>
<path d="M9.25781 6H2.29692" stroke="#1A5333" stroke-linecap="round"/>
<path d="M9.75867 6C9.75867 6.83107 10.4279 7.5 11.2475 7.5C12.0671 7.5 12.7363 6.83107 12.7363 6C12.7363 5.16893 12.0671 4.5 11.2475 4.5C10.4279 4.5 9.75867 5.16893 9.75867 6Z" stroke="#1A5333"/>
</svg>
