<svg width="21" height="27" viewBox="0 0 21 27" fill="none" xmlns="http://www.w3.org/2000/svg">
<path d="M18.9 10.6071C18.9 8.30544 18.0039 6.09801 16.4089 4.47047C14.8139 2.84292 12.6507 1.92857 10.395 1.92857C8.13933 1.92857 5.97605 2.84292 4.38106 4.47047C2.78606 6.09801 1.89 8.30544 1.89 10.6071C1.89 14.1673 4.68153 18.8074 10.395 24.3656C16.1085 18.8074 18.9 14.1673 18.9 10.6071ZM10.395 27C3.46437 20.5721 0 15.1065 0 10.6071C0 7.79395 1.09518 5.09599 3.04463 3.10676C4.99407 1.11754 7.63807 0 10.395 0C13.1519 0 15.7959 1.11754 17.7454 3.10676C19.6948 5.09599 20.79 7.79395 20.79 10.6071C20.79 15.1065 17.3256 20.5721 10.395 27Z" fill="#CF0B07"/>
<path d="M10.3969 13.5014C11.1488 13.5014 11.8699 13.1966 12.4015 12.6541C12.9332 12.1116 13.2319 11.3758 13.2319 10.6085C13.2319 9.8413 12.9332 9.10549 12.4015 8.56298C11.8699 8.02046 11.1488 7.71568 10.3969 7.71568C9.64499 7.71568 8.92389 8.02046 8.39223 8.56298C7.86056 9.10549 7.56187 9.8413 7.56187 10.6085C7.56187 11.3758 7.86056 12.1116 8.39223 12.6541C8.92389 13.1966 9.64499 13.5014 10.3969 13.5014ZM10.3969 15.43C9.14373 15.43 7.9419 14.922 7.0558 14.0178C6.16969 13.1136 5.67188 11.8873 5.67188 10.6085C5.67188 9.32982 6.16969 8.10347 7.0558 7.19927C7.9419 6.29508 9.14373 5.78711 10.3969 5.78711C11.65 5.78711 12.8518 6.29508 13.738 7.19927C14.6241 8.10347 15.1219 9.32982 15.1219 10.6085C15.1219 11.8873 14.6241 13.1136 13.738 14.0178C12.8518 14.922 11.65 15.43 10.3969 15.43Z" fill="#CF0B07"/>
</svg>
