<svg width="8" height="7" viewBox="0 0 8 7" fill="none" xmlns="http://www.w3.org/2000/svg">
<path d="M0.533278 1.4732C0.533278 1.42407 0.56137 1.37695 0.611374 1.3422C0.661379 1.30746 0.729199 1.28794 0.799916 1.28794H1.59983V1.4732H1.06656C0.995838 1.4732 0.928018 1.49272 0.878013 1.52747C0.828009 1.56221 0.799916 1.60933 0.799916 1.65847V5.73432C0.799916 5.78345 0.828009 5.83058 0.878013 5.86532C0.928018 5.90006 0.995838 5.91958 1.06656 5.91958H2.66639V5.54905H1.33319V1.84374H5.59941V2.5848H6.13269V1.65847C6.13269 1.60933 6.1046 1.56221 6.0546 1.52747C6.00459 1.49272 5.93677 1.4732 5.86605 1.4732H5.33278V1.28794H6.13269C6.20341 1.28794 6.27123 1.30746 6.32123 1.3422C6.37124 1.37695 6.39933 1.42407 6.39933 1.4732V2.77006H6.93261V1.4732C6.93261 1.3258 6.84833 1.18443 6.69832 1.0802C6.54831 0.975964 6.34484 0.917407 6.13269 0.917407H5.86605C5.86605 0.819136 5.80987 0.724889 5.70986 0.655401C5.60985 0.585913 5.47421 0.546875 5.33278 0.546875H1.59983C1.4584 0.546875 1.32276 0.585913 1.22275 0.655401C1.12274 0.724889 1.06656 0.819136 1.06656 0.917407H0.799916C0.587765 0.917407 0.384303 0.975964 0.23429 1.0802C0.0842767 1.18443 0 1.3258 0 1.4732V6.29012C0 6.33925 0.0280922 6.38637 0.0780967 6.42112C0.128101 6.45586 0.195922 6.47538 0.266639 6.47538H2.93303V6.10485H0.533278V1.4732ZM2.13311 0.917407H4.7995V1.4732H2.13311V0.917407Z" fill="black"/>
<path d="M5.60092 3.14258C5.1263 3.14258 4.66233 3.24037 4.26769 3.42358C3.87306 3.6068 3.56547 3.86721 3.38384 4.17189C3.20221 4.47656 3.15469 4.81182 3.24728 5.13526C3.33988 5.4587 3.56843 5.75581 3.90404 5.98899C4.23965 6.22218 4.66725 6.38099 5.13275 6.44532C5.59826 6.50966 6.08077 6.47664 6.51927 6.35044C6.95776 6.22424 7.33255 6.01052 7.59624 5.73632C7.85993 5.46212 8.00067 5.13975 8.00067 4.80997C8.00067 4.36775 7.74784 3.94364 7.2978 3.63095C6.84776 3.31825 6.23738 3.14258 5.60092 3.14258ZM5.60092 6.10683C5.23177 6.10683 4.87091 6.03077 4.56397 5.88827C4.25703 5.74577 4.0178 5.54323 3.87653 5.30626C3.73526 5.06929 3.6983 4.80853 3.77031 4.55697C3.84233 4.3054 4.0201 4.07432 4.28113 3.89295C4.54216 3.71158 4.87473 3.58807 5.23679 3.53803C5.59885 3.48799 5.97414 3.51367 6.31519 3.61183C6.65624 3.70998 6.94775 3.87621 7.15284 4.08947C7.35793 4.30274 7.46739 4.55348 7.46739 4.80997C7.46739 5.15392 7.27075 5.48378 6.92072 5.72699C6.57069 5.9702 6.09594 6.10683 5.60092 6.10683Z" fill="black"/>
<path d="M5.86531 4.06836H5.33204V4.80942C5.33183 4.8338 5.33856 4.85798 5.35183 4.88055C5.3651 4.90312 5.38465 4.92365 5.40936 4.94096L6.20928 5.49676L6.58524 5.23553L5.86531 4.73346V4.06836Z" fill="black"/>
</svg>
